<svg t="1609169018569" class="icon" viewBox="0 0 1024 1024" version="1.1" xmlns="http://www.w3.org/2000/svg" p-id="138623" width="200" height="200"><path d="M320.560572 297.447682c15.359432 12.799526 35.838674 20.479242 53.758011 17.919337 20.479242 0 38.347381-10.239621 53.706813-23.039147 17.919337-15.359432 30.718863-35.838674 40.958484-58.877822C486.852019 189.982859 486.852019 136.327244 471.492587 90.300147c-10.239621-30.718863-28.158958-58.877822-53.75801-76.797159-15.359432-10.239621-38.398579-15.359432-58.877822-12.799526-12.799526 2.559905-25.599053 7.679716-38.347381 15.359432-23.039148 15.359432-38.398579 40.958485-48.638201 66.557537-12.799526 46.078295-15.359432 92.105392-2.559905 138.132489 10.239621 28.158958 25.599053 56.317916 51.198106 76.745961z m255.836934 2.559906c17.919337 15.359432 40.958485 25.599053 63.997632 25.599053 20.428044 2.559905 38.347381-2.559905 56.21552-12.799527 17.919337-10.239621 33.278769-25.599053 43.51839-43.51839 12.799526-20.479242 23.039148-40.958485 30.718863-63.946434 5.119811-17.919337 7.679716-38.398579 5.119811-58.877821-2.559905-28.10776-15.359432-53.655615-33.278769-76.694762-12.799526-15.359432-28.158958-30.718863-46.078295-38.39858-12.799526-5.119811-28.158958-10.239621-40.958484-7.679716-17.868139 2.559905-33.227571 12.799526-46.027097 23.039148-17.919337 15.359432-33.278769 33.278769-43.467192 53.758011-10.239621 17.919337-20.479242 38.347381-23.039148 61.386529-2.559905 25.599053-2.559905 51.198106 2.559906 74.186055 5.119811 23.039148 12.799526 46.078295 30.718863 63.946434zM220.775464 509.766227c17.919337-15.359432 28.158958-35.838674 35.838674-56.266718 10.239621-33.278769 10.239621-66.557537 7.679716-99.785108 0-12.799526-5.119811-25.599053-10.239621-38.39858-12.799526-28.10776-35.838674-53.706813-63.997632-69.015046-22.987949-10.239621-46.027097-15.359432-66.455142-10.239621-25.599053 2.559905-46.078295 20.479242-61.437726 40.958484-20.479242 28.10776-30.718863 63.946434-35.838674 97.174005-2.559905 20.479242 0 40.958485 5.11981 61.437727 7.679716 30.667665 23.039148 58.826623 46.078295 79.254667 17.919337 15.359432 40.958485 23.039148 63.997632 23.039148 28.10776 0 56.266718-7.679716 79.254668-28.158958z m736.791939-76.745961c-2.559905-20.479242-7.679716-38.398579-17.919337-56.266718-10.239621-20.479242-28.158958-40.958485-48.587003-51.198106-23.039148-12.799526-51.198106-15.359432-76.797158-12.799526-12.748328 2.559905-28.10776 5.119811-40.907287 12.799526-17.919337 10.239621-30.718863 28.158958-40.907286 48.638201-10.239621 25.599053-15.359432 53.758011-15.359432 81.916969 0 25.547855 0 53.655615 7.679716 79.254667 5.119811 17.919337 15.359432 38.398579 33.278769 48.638201 17.919337 15.359432 40.958485 20.479242 63.946434 23.039147 17.919337 2.559905 38.398579 2.559905 56.317916-2.559905 17.868139-5.119811 35.787476-15.359432 46.027097-30.718863 12.799526-15.359432 20.479242-35.838674 23.039148-53.758011 12.799526-30.718863 10.239621-58.826623 10.239621-86.985582z m-71.62615 386.340906c-2.559905-35.838674-20.479242-71.677348-46.078295-99.836306-5.119811-5.119811-10.239621-10.239621-17.919337-15.308234-33.227571-28.158958-66.455141-58.877822-99.73391-89.545487-33.278769-33.278769-63.997632-69.066245-92.105392-107.464824-20.479242-33.278769-48.6382-63.946434-86.985582-81.865771-23.039148-10.239621-51.198106-15.359432-76.74596-12.799526-46.078295 5.119811-86.985582 30.718863-115.093342 66.557537-7.679716 7.679716-12.799526 17.919337-17.919337 28.158958-20.479242 30.667665-46.078295 61.386529-74.237253 86.934384-15.308234 15.359432-30.667665 28.158958-46.027097 40.958484-7.679716 7.679716-17.919337 15.359432-25.599053 23.039148-30.667665 23.039148-61.386529 53.706813-79.254667 86.934383-12.799526 23.039148-20.479242 48.6382-23.039148 76.797159 0 23.039148 2.559905 46.027097 10.239621 66.506339 7.679716 23.039148 17.919337 46.078295 33.278769 63.946434 25.599053 30.718863 63.946434 51.198106 102.293815 53.758011 48.6382 2.559905 97.225203 0 143.2523-7.679716 20.479242-2.559905 40.958485-10.239621 63.997632-12.799526 46.027097-5.119811 92.054194-2.559905 135.572584 10.239621 35.838674 12.799526 74.186055 17.919337 112.584634 20.479242 38.347381 2.559905 79.305866-2.559905 115.093342-23.039147 25.599053-12.799526 46.078295-35.838674 58.877821-61.437727 20.479242-33.278769 30.667665-71.62615 25.547855-112.533436zM456.133156 924.163694H338.479909c-12.799526 0-25.599053 0-38.398579-2.559905-25.599053-5.119811-48.6382-20.479242-63.946434-43.51839-12.799526-15.308234-20.479242-33.227571-23.039148-53.706813a246.570077 246.570077 0 0 1 0-61.386529c5.119811-23.039148 17.919337-43.51839 33.278769-58.826623 12.799526-12.799526 30.718863-23.039148 48.6382-30.718864 7.679716-2.559905 15.359432-5.119811 23.039148-5.11981H387.015713v-97.174005h66.557537c2.559905 120.213152 2.559905 237.917597 2.559906 353.010939z m263.51665 0H558.529367c-17.919337-2.559905-33.278769-7.679716-46.078295-17.919337-15.359432-12.799526-22.987949-33.278769-22.987949-51.146908v-173.971163h66.557537v161.171637c0 7.679716 2.559905 12.799526 7.628518 17.919337 5.119811 5.119811 12.799526 7.679716 20.479242 7.679716h69.066244v-189.330595h66.557538v245.597313z" fill="#306CFF" p-id="138624"></path><path d="M315.440761 734.935495c-12.799526 5.119811-25.599053 15.359432-33.278768 30.718864-5.119811 12.748328-7.679716 25.547855-7.679716 38.347381 0 15.359432 5.119811 30.718863 12.799526 43.51839 10.239621 15.308234 28.158958 25.547855 46.078295 22.987949h53.758011v-138.132489h-58.877821c-2.559905-2.559905-7.679716 0-12.799527 2.559905z" fill="#306CFF" p-id="138625"></path></svg>